<svg xmlns="http://www.w3.org/2000/svg" xmlns:xlink="http://www.w3.org/1999/xlink" width="336.179" height="338.491" viewBox="0 0 336.179 338.491">
  <defs>
    <linearGradient id="linear-gradient" x1="0.313" y1="0.396" x2="0.849" y2="0.864" gradientUnits="objectBoundingBox">
      <stop offset="0" stop-color="#efefef"/>
      <stop offset="0.001" stop-color="#efefef"/>
      <stop offset="1" stop-color="#efefef"/>
    </linearGradient>
  </defs>
  <g id="android_studio_ic" transform="translate(-7 -6)">
    <ellipse id="Ellipse_2" data-name="Ellipse 2" cx="168.09" cy="167.901" rx="168.09" ry="167.901" transform="translate(7 8.689)" opacity="0.2"/>
    <ellipse id="Ellipse_3" data-name="Ellipse 3" cx="168.09" cy="167.901" rx="168.09" ry="167.901" transform="translate(7 6)" fill="#efefef"/>
    <path id="Path_7" data-name="Path 7" d="M386.563,222.992,252.259,88.845,143.774,265.989,244.982,367.082a168.086,168.086,0,0,0,141.581-144.09Z" transform="translate(-44.813 -27.143)" fill="#efefef"/>
    <path id="Path_8" data-name="Path 8" d="M386.563,222.992,252.259,88.845,143.774,265.989,244.982,367.082a168.086,168.086,0,0,0,141.581-144.09Z" transform="translate(-44.813 -27.143)" fill="url(#linear-gradient)"/>
    <path id="Path_9" data-name="Path 9" d="M280.817,161.988h-6.559a52.183,52.183,0,0,0-27.07-41.751l-3.3-1.645a55.545,55.545,0,0,0-45.455,0l-.028-.049q-1.694.756-3.429,1.412l.162.282a52.1,52.1,0,0,0-10.767,7.786H153.7a17.033,17.033,0,0,0-16.982,16.982c0,.229.008.456.016.683-.034-.468-.034-.736-.034-.736V262.317A17.032,17.032,0,0,0,153.686,279.3h29.759l-7.309,15.573a8.306,8.306,0,1,0,15.06,7.011L201.766,279.3h38.32l10.719,22.279a8.3,8.3,0,0,0,14.951-7.209l-7.232-15.07h23.828l-.04,26.269a.848.848,0,0,0,.845.846l7.189.04a15.325,15.325,0,0,0,15.281-15.28V178.356c0-18.5-24.81-16.368-24.81-16.368Z" transform="translate(-42.496 -35.297)" fill="#ccc"/>
    <g id="Group_1" data-name="Group 1" transform="translate(88.799 61.455)">
      <path id="Path_10" data-name="Path 10" d="M192.037,126.925h-46.37a17.032,17.032,0,0,0-16.982,16.982c0,9.34,7.079,16.982,16.419,16.982h47.331Z" transform="translate(-128.668 -101.075)" fill="#073042"/>
      <path id="Path_11" data-name="Path 11" d="M297.582,286.449H145.642a17.032,17.032,0,0,1-16.982-16.982V152.1s-.051,17.035,18.1,17.035H272.773s24.809-2.135,24.809,16.368V286.449Z" transform="translate(-128.66 -109.325)" fill="#4285f4"/>
      <path id="Path_12" data-name="Path 12" d="M231,243.275l-28.139,59.96h18.32l13.044-27.873a6.662,6.662,0,0,1,12.037-.036l13.428,27.909h18.438l-28.948-60.323a15.282,15.282,0,0,0-5.565-26.946v-9.952a2.944,2.944,0,0,0-5.887,0v9.628A15.289,15.289,0,0,0,231,243.275Zm8.847-21.912a9.432,9.432,0,1,1-9.431,9.432,9.432,9.432,0,0,1,9.431-9.432Z" transform="translate(-152.972 -126.048)" fill="#3870b2"/>
      <path id="Path_13" data-name="Path 13" d="M207.958,139.33h65.009v11.9H207.958Z" transform="translate(-154.641 -105.14)" fill="#fff"/>
      <path id="Path_14" data-name="Path 14" d="M252.842,133.177a4.422,4.422,0,1,1,4.421-4.423,4.428,4.428,0,0,1-4.421,4.423m-48.874,0a4.422,4.422,0,1,1,4.422-4.423,4.427,4.427,0,0,1-4.422,4.423m50.459-26.635,8.837-15.3a1.839,1.839,0,0,0-3.184-1.839l-8.948,15.5a55.552,55.552,0,0,0-45.455,0l-8.948-15.5a1.839,1.839,0,0,0-3.184,1.838l8.837,15.3a52.178,52.178,0,0,0-27.071,41.766H281.5a52.184,52.184,0,0,0-27.071-41.766" transform="translate(-143.945 -88.479)" fill="#3ddc84"/>
      <path id="Path_15" data-name="Path 15" d="M301.133,218.469h-7.017a.848.848,0,0,0-.846.846L293.1,329.45a.848.848,0,0,0,.846.846l7.189.04a15.326,15.326,0,0,0,15.281-15.281V203.172a15.339,15.339,0,0,1-15.281,15.3Zm-70.007,3.04a9.431,9.431,0,1,1-9.431,9.432A9.432,9.432,0,0,1,231.125,221.509Zm3.771-5.634v-9.716a2.943,2.943,0,1,0-5.887,0v9.628a15.289,15.289,0,0,0-6.731,27.634l-35.355,75.333a8.306,8.306,0,1,0,15.06,7.012l23.52-50.259a6.661,6.661,0,0,1,12.037-.036l24.052,49.988a8.3,8.3,0,0,0,14.951-7.208l-36.085-75.195a15.282,15.282,0,0,0-5.566-26.946" transform="translate(-147.492 -126.057)" fill="#073042"/>
    </g>
  </g>
</svg>
