<svg xmlns="http://www.w3.org/2000/svg" width="47.13" height="52.744" viewBox="0 0 47.13 52.744">
  <g id="group" transform="translate(-10.638 -10.638)">
    <g id="Ellipse_1" data-name="Ellipse 1" transform="translate(18.638 22.638)" fill="#d6f0ff" stroke="#707070" stroke-width="1">
      <circle cx="16" cy="16" r="16" stroke="none"/>
      <circle cx="16" cy="16" r="15.5" fill="none"/>
    </g>
    <path id="path" d="M24.837,42.512a1.464,1.464,0,0,1-.188-.537A1.464,1.464,0,0,0,24.837,42.512Z" fill="#083042"/>
    <path id="path_1" d="M24.821,31.877h0a2.372,2.372,0,0,0-.175.692A2.372,2.372,0,0,1,24.821,31.877Z" fill="#083042"/>
    <path id="path_2" d="M25.07,42.811a1.463,1.463,0,0,0,.308.232l7.774,4.391-7.774-4.391A1.466,1.466,0,0,1,25.07,42.811Z" fill="#083042"/>
    <path id="path_3" d="M34.348,52.985l-.062,0a3.3,3.3,0,0,1-1.65-.426l-11.6-6.551a2.183,2.183,0,0,1-1.111-1.882V30.808a3.623,3.623,0,0,1,.337-1.6L11.2,24.128a5.981,5.981,0,0,0-.558,2.643V48.759a3.6,3.6,0,0,0,1.834,3.107L31.616,62.679a5.446,5.446,0,0,0,2.724.7v-.016C34.362,62,34.355,56.465,34.348,52.985Z" fill="#083042"/>
    <path id="path_4" d="M43.465,31.634h0c-.022-.036-.044-.072-.068-.107a2.42,2.42,0,0,0-.172-.224,2.39,2.39,0,0,1,.172.224C43.421,31.562,43.443,31.6,43.465,31.634Z" fill="#3ddb85"/>
    <path id="path_5" d="M24.927,31.651a2.016,2.016,0,0,1,.159-.24A1.993,1.993,0,0,0,24.927,31.651Z" fill="#3ddb85"/>
    <path id="path_6" d="M33.9,26.309c.052,0,.1-.007.157-.008C34.007,26.3,33.955,26.3,33.9,26.309Z" fill="#3ddb85"/>
    <path id="path_7" d="M20.265,29.206a2.926,2.926,0,0,1,1.159-1.273l10.918-6.441a3.3,3.3,0,0,1,3.3-.032l11.038,6.234A3.711,3.711,0,0,1,47.92,28.83l0,.006,8.921-5.328A6.124,6.124,0,0,0,54.8,21.633L36.582,11.343a5.447,5.447,0,0,0-5.449.052L13.111,22.027a4.829,4.829,0,0,0-1.914,2.1l9.068,5.08Z" fill="#3ddc84"/>
    <path id="path_8" d="M33.449,26.394l.07-.02Z" fill="#3ddb85"/>
    <path id="path_9" d="M24.86,31.779q.031-.065.067-.128-.036.063-.067.128c-.015.032-.026.066-.04.1h0C24.834,31.845,24.845,31.811,24.86,31.779Z" fill="#3ddb85"/>
    <path id="path_10" d="M56.845,23.508l-8.921,5.328a3.094,3.094,0,0,1,.556,1.7V43.214a3.3,3.3,0,0,1-1.624,2.875L35.937,52.53a3.291,3.291,0,0,1-1.589.455c.007,3.48.013,9.011-.008,10.382v.016a5.437,5.437,0,0,0,2.726-.754L55.088,52a5.45,5.45,0,0,0,2.68-4.745V26.326A5.109,5.109,0,0,0,56.845,23.508Z" fill="#4285f4"/>
    <path id="path_11" d="M43.669,41.854q-.011.034-.023.068Q43.659,41.888,43.669,41.854Z" fill="#4285f4"/>
    <path id="path_12" d="M43.553,31.791c-.027-.053-.057-.106-.088-.157h0C43.5,31.685,43.526,31.738,43.553,31.791Z" fill="#4285f4"/>
    <path id="path_13" d="M35.366,47.413,42.684,43.1q.064-.038.125-.079-.061.041-.125.079Z" fill="#4285f4"/>
    <path id="path_14" d="M43.57,42.111c-.026.057-.053.113-.084.167C43.517,42.224,43.544,42.168,43.57,42.111Z" fill="#4285f4"/>
    <path id="path_15" d="M43.038,42.836a2.206,2.206,0,0,0,.292-.318A2.213,2.213,0,0,1,43.038,42.836Z" fill="#4285f4"/>
    <path id="path_16" d="M43.486,42.278a2.237,2.237,0,0,1-.157.24A2.226,2.226,0,0,0,43.486,42.278Z" fill="#4285f4"/>
    <path id="path_17" d="M34.341,47.716l-.083,0a2.212,2.212,0,0,1-1.106-.286l-7.774-4.391a1.464,1.464,0,0,1-.745-1.262V32.853a2.71,2.71,0,0,1,.012-.283,2.372,2.372,0,0,1,.175-.692l-2.1-1.293-2.457-1.377a3.625,3.625,0,0,0-.337,1.6v13.32a2.183,2.183,0,0,0,1.111,1.882l11.6,6.551a3.3,3.3,0,0,0,1.65.426l.062,0c0-1.7-.007-2.908-.007-2.908Z" fill="#083042"/>
    <path id="path_18" d="M34.341,47.716l-.083,0a2.212,2.212,0,0,1-1.106-.286l-7.774-4.391a1.464,1.464,0,0,1-.745-1.262V32.853a2.71,2.71,0,0,1,.012-.283,2.372,2.372,0,0,1,.175-.692l-2.1-1.293-2.457-1.377a3.625,3.625,0,0,0-.337,1.6v13.32a2.183,2.183,0,0,0,1.111,1.882l11.6,6.551a3.3,3.3,0,0,0,1.65.426l.062,0c0-1.7-.007-2.908-.007-2.908Z" fill="#041619"/>
    <path id="path_19" d="M46.682,27.695,35.644,21.46a3.3,3.3,0,0,0-3.3.032L21.425,27.933a2.925,2.925,0,0,0-1.159,1.273v0l2.457,1.377,2.1,1.293c.014-.032.025-.066.04-.1s.043-.086.067-.128a2.016,2.016,0,0,1,.16-.24,1.942,1.942,0,0,1,.551-.485l7.318-4.317a2.214,2.214,0,0,1,.493-.214l.07-.02a2.206,2.206,0,0,1,.383-.066c.052,0,.1-.007.157-.008s.1,0,.143,0a2.213,2.213,0,0,1,.966.283l7.4,4.179a2.51,2.51,0,0,1,.658.537,2.39,2.39,0,0,1,.172.224c.024.035.046.071.068.107l1.887-1.263,2.571-1.535,0-.006A3.71,3.71,0,0,0,46.682,27.695Z" fill="#37bf6e"/>
    <path id="path_20" d="M43.465,31.634c.031.051.061.1.088.157s.044.092.064.139a2.078,2.078,0,0,1,.1.288,1.919,1.919,0,0,1,.06.454v8.5a2.21,2.21,0,0,1-.1.685c-.007.023-.015.045-.023.068q-.034.1-.077.189c-.026.057-.053.113-.084.167a2.238,2.238,0,0,1-.157.24,2.213,2.213,0,0,1-.292.318,2.183,2.183,0,0,1-.229.18q-.061.041-.125.079l-7.318,4.318a2.2,2.2,0,0,1-1.024.3v2.36s0,1.21.007,2.908a3.29,3.29,0,0,0,1.589-.455l10.918-6.442a3.3,3.3,0,0,0,1.624-2.875V30.537a3.094,3.094,0,0,0-.556-1.7l-2.571,1.535Z" fill="#4285f4"/>
    <path id="path_21" d="M43.465,31.634c.031.051.061.1.088.157s.044.092.064.139a2.078,2.078,0,0,1,.1.288,1.919,1.919,0,0,1,.06.454v8.5a2.21,2.21,0,0,1-.1.685c-.007.023-.015.045-.023.068q-.034.1-.077.189c-.026.057-.053.113-.084.167a2.238,2.238,0,0,1-.157.24,2.213,2.213,0,0,1-.292.318,2.183,2.183,0,0,1-.229.18q-.061.041-.125.079l-7.318,4.318a2.2,2.2,0,0,1-1.024.3v2.36s0,1.21.007,2.908a3.29,3.29,0,0,0,1.589-.455l10.918-6.442a3.3,3.3,0,0,0,1.624-2.875V30.537a3.094,3.094,0,0,0-.556-1.7l-2.571,1.535Z" fill="#3870b2"/>
    <path id="path_22" d="M33.449,26.394a2.2,2.2,0,0,0-.493.214l-7.318,4.317,7.318-4.317A2.209,2.209,0,0,1,33.449,26.394Z" fill="#d6f0ff"/>
    <path id="path_23" d="M33.449,26.394a2.2,2.2,0,0,0-.493.214l-7.318,4.317,7.318-4.317A2.209,2.209,0,0,1,33.449,26.394Z" fill="rgba(0,0,0,0.1)"/>
    <path id="path_24" d="M43.225,31.3a2.508,2.508,0,0,0-.658-.537l-7.4-4.179,7.4,4.179A2.508,2.508,0,0,1,43.225,31.3Z" fill="#d6f0ff"/>
    <path id="path_25" d="M43.225,31.3a2.508,2.508,0,0,0-.658-.537l-7.4-4.179,7.4,4.179A2.508,2.508,0,0,1,43.225,31.3Z" fill="rgba(0,0,0,0.1)"/>
    <path id="path_26" d="M34.059,26.3q.072,0,.143,0Q34.131,26.3,34.059,26.3Z" fill="#d6f0ff"/>
    <path id="path_27" d="M34.059,26.3q.072,0,.143,0Q34.131,26.3,34.059,26.3Z" fill="rgba(0,0,0,0.1)"/>
    <path id="path_28" d="M33.519,26.374a2.206,2.206,0,0,1,.383-.066A2.206,2.206,0,0,0,33.519,26.374Z" fill="#d6f0ff"/>
    <path id="path_29" d="M33.519,26.374a2.206,2.206,0,0,1,.383-.066A2.206,2.206,0,0,0,33.519,26.374Z" fill="rgba(0,0,0,0.1)"/>
    <path id="path_30" d="M34.2,26.3a2.213,2.213,0,0,1,.565.106A2.213,2.213,0,0,0,34.2,26.3Z" fill="#d6f0ff"/>
    <path id="path_31" d="M34.2,26.3a2.213,2.213,0,0,1,.565.106A2.213,2.213,0,0,0,34.2,26.3Z" fill="rgba(0,0,0,0.1)"/>
    <path id="path_32" d="M43.647,41.921q-.034.1-.077.189Q43.613,42.018,43.647,41.921Z" fill="#d6f0ff"/>
    <path id="path_33" d="M43.647,41.921q-.034.1-.077.189Q43.613,42.018,43.647,41.921Z" fill="rgba(0,0,0,0.1)"/>
    <path id="path_34" d="M43.616,31.93a2.078,2.078,0,0,1,.1.288A2.078,2.078,0,0,0,43.616,31.93Z" fill="#d6f0ff"/>
    <path id="path_35" d="M43.616,31.93a2.078,2.078,0,0,1,.1.288A2.078,2.078,0,0,0,43.616,31.93Z" fill="rgba(0,0,0,0.1)"/>
    <path id="path_36" d="M43.669,41.854a2.217,2.217,0,0,0,.1-.685v0A2.217,2.217,0,0,1,43.669,41.854Z" fill="#d6f0ff"/>
    <path id="path_37" d="M43.669,41.854a2.217,2.217,0,0,0,.1-.685v0A2.217,2.217,0,0,1,43.669,41.854Z" fill="rgba(0,0,0,0.1)"/>
  </g>
</svg>
